<svg xmlns="http://www.w3.org/2000/svg" width="37" height="47" fill="none" viewBox="0 0 37 47">
  <path fill="#FF0B0B" d="M23.12 11.896c0 .694-.34 1.04-1.018 1.04a.947.947 0 0 1-.696-.285.951.951 0 0 1-.278-.689c0-.293.102-.542.308-.747.205-.205.456-.307.754-.307.278 0 .503.09.674.27.17.181.256.42.256.718Zm-.315 2.791c0 2.944-.105 5.12-.315 6.526-.083.566-.175.947-.278 1.142a.666.666 0 0 1-.637.389.705.705 0 0 1-.498-.19.63.63 0 0 1-.205-.47c0 .025.039-.144.117-.505.092-.41.168-.876.227-1.399.078-.742.117-1.572.117-2.49 0-.4-.005-.823-.015-1.267-.01-.444-.014-.686-.014-.725 0-.66.056-1.118.168-1.377.117-.283.337-.425.66-.425.449 0 .673.264.673.791Zm8.313 1.487c0 .17-.053.317-.161.44a.5.5 0 0 1-.38.175c-.074 0-.355-.095-.843-.286a3.86 3.86 0 0 0-1.421-.285c-.146 0-.3.01-.461.03a9.952 9.952 0 0 0-.271 2.189c0 .854.144 1.511.432 1.97.288.46.688.689 1.2.689.157 0 .362-.05.616-.147.259-.102.444-.154.557-.154.39 0 .586.23.586.689 0 .298-.162.54-.484.725-.322.186-.761.278-1.318.278-2.07 0-3.106-1.38-3.106-4.138 0-.58.071-1.22.213-1.919-.137.02-.432.076-.886.169a3.813 3.813 0 0 1-.66.087c-.522 0-.783-.2-.783-.6 0-.547.9-.903 2.702-1.07.372-1.176.826-1.764 1.363-1.764.166 0 .307.06.424.183a.587.587 0 0 1 .176.432c0 .127-.036.288-.11.483l-.22.579c1.89.063 2.835.478 2.835 1.245Z"/>
  <path fill="#121111" d="M9.728 38.224c-1.75 0-3.221-.427-4.416-1.28-1.173-.875-2.059-2.027-2.656-3.456-.597-1.45-.896-3.019-.896-4.704 0-1.45.224-2.901.672-4.352a12.134 12.134 0 0 1 2.08-4c.939-1.216 2.133-2.187 3.584-2.912 1.472-.747 3.221-1.12 5.248-1.12.555 0 1.024.021 1.408.064.384.043.683.096.896.16l.064.736c-.384.085-.864.256-1.44.512-.555.235-1.141.533-1.76.896-.597.341-1.152.725-1.664 1.152a9.35 9.35 0 0 0-2.208 2.656 11.93 11.93 0 0 0-1.216 3.296c.49-.768 1.11-1.333 1.856-1.696a5.217 5.217 0 0 1 2.304-.544c.981 0 1.92.256 2.816.768.917.49 1.675 1.227 2.272 2.208.597.981.896 2.197.896 3.648 0 1.387-.31 2.688-.928 3.904a7.433 7.433 0 0 1-2.688 2.944c-1.173.747-2.581 1.12-4.224 1.12Zm-.16-3.04c.875 0 1.525-.427 1.952-1.28.427-.875.64-1.899.64-3.072 0-1.344-.245-2.368-.736-3.072-.49-.725-1.056-1.088-1.696-1.088-.47 0-.95.213-1.44.64-.49.427-.907 1.088-1.248 1.984v.352c0 3.69.843 5.536 2.528 5.536Z"/>
</svg>
