<svg xmlns="http://www.w3.org/2000/svg" width="83" height="74" fill="none" viewBox="0 0 83 74">
  <path fill="#FF0B0B" d="M74.912 38.637c0 .647-.317.97-.95.97a.883.883 0 0 1-.65-.266.887.887 0 0 1-.26-.643.95.95 0 0 1 .288-.697.958.958 0 0 1 .704-.287c.26 0 .47.084.629.253.16.168.24.392.24.67Zm-.294 2.604c0 2.748-.098 4.779-.294 6.091-.077.529-.164.884-.26 1.066a.622.622 0 0 1-.594.363.658.658 0 0 1-.465-.178.588.588 0 0 1-.191-.438c0 .023.036-.134.109-.471.086-.383.157-.818.212-1.306.073-.693.11-1.467.11-2.324 0-.374-.005-.768-.014-1.183-.01-.414-.014-.64-.014-.676 0-.616.052-1.044.157-1.286.11-.264.315-.396.615-.396.42 0 .63.246.63.738Zm7.759 1.388a.6.6 0 0 1-.15.41.467.467 0 0 1-.356.164c-.068 0-.33-.089-.786-.267a3.604 3.604 0 0 0-1.326-.266c-.137 0-.28.009-.43.027a9.292 9.292 0 0 0-.254 2.044c0 .798.135 1.41.403 1.84.27.427.643.642 1.122.642.145 0 .337-.046.574-.137.241-.096.414-.144.52-.144.364 0 .546.215.546.643 0 .278-.15.504-.45.677-.302.173-.712.26-1.231.26-1.933 0-2.899-1.288-2.899-3.863 0-.542.066-1.14.198-1.79-.127.017-.403.07-.827.156a3.555 3.555 0 0 1-.615.082c-.488 0-.731-.186-.731-.56 0-.51.84-.843 2.522-.998.346-1.099.77-1.648 1.272-1.648a.53.53 0 0 1 .396.171c.11.11.164.244.164.404 0 .118-.034.269-.103.45l-.205.54c1.764.06 2.646.447 2.646 1.163Z"/>
  <path fill="#121111" d="M61.728 65.224c-1.75 0-3.221-.427-4.416-1.28-1.173-.875-2.059-2.027-2.656-3.456-.597-1.45-.896-3.019-.896-4.704 0-1.45.224-2.901.672-4.352a12.134 12.134 0 0 1 2.08-4c.939-1.216 2.133-2.187 3.584-2.912 1.472-.747 3.221-1.12 5.248-1.12.555 0 1.024.021 1.408.064.384.043.683.096.896.16l.064.736c-.384.085-.864.256-1.44.512-.555.235-1.141.533-1.76.896-.597.341-1.152.725-1.664 1.152a9.351 9.351 0 0 0-2.208 2.656 11.929 11.929 0 0 0-1.216 3.296c.49-.768 1.11-1.333 1.856-1.696a5.217 5.217 0 0 1 2.304-.544c.981 0 1.92.256 2.816.768.917.49 1.675 1.227 2.272 2.208.597.981.896 2.197.896 3.648 0 1.387-.31 2.688-.928 3.904a7.433 7.433 0 0 1-2.688 2.944c-1.173.747-2.581 1.12-4.224 1.12Zm-.16-3.04c.875 0 1.525-.427 1.952-1.28.427-.875.64-1.899.64-3.072 0-1.344-.245-2.368-.736-3.072-.49-.725-1.056-1.088-1.696-1.088-.47 0-.95.213-1.44.64-.49.427-.907 1.088-1.248 1.984v.352c0 3.69.843 5.536 2.528 5.536Z"/>
  <path fill="#171616" d="m5.568 27.182 5.228 8.92 5.227-8.92h3.863L12.841 38.09 19.886 49h-3.863l-5.227-8.466L5.568 49H1.705l6.931-10.91-6.931-10.908h3.863Z"/>
  <path fill="#F11" d="M31.586 13.469c0 2.219-1.086 3.328-3.258 3.328-.875 0-1.617-.305-2.226-.914a3.043 3.043 0 0 1-.891-2.203c0-.938.328-1.735.984-2.39.657-.657 1.461-.985 2.414-.985.891 0 1.61.289 2.157.867.547.578.82 1.344.82 2.297Zm-1.008 8.93c0 9.421-.336 16.382-1.008 20.882-.265 1.813-.562 3.032-.89 3.657-.422.828-1.102 1.242-2.04 1.242-.624 0-1.156-.203-1.593-.61-.438-.422-.656-.922-.656-1.5 0 .078.125-.46.375-1.617.297-1.312.539-2.805.726-4.476.25-2.375.375-5.032.375-7.97 0-1.28-.015-2.632-.047-4.054a296.857 296.857 0 0 1-.047-2.32c0-2.11.18-3.578.54-4.406.375-.907 1.078-1.36 2.109-1.36 1.437 0 2.156.844 2.156 2.531Z"/>
  <path fill="#161515" d="m40.53 27.182 5.226 8.92 5.228-8.92h3.863L47.802 38.09 54.847 49h-3.863l-5.228-8.466L40.53 49h-3.864l6.932-10.91-6.931-10.908h3.863Z"/>
</svg>
