<svg xmlns="http://www.w3.org/2000/svg" width="25" height="20" fill="none" viewBox="0 0 25 20">
  <g filter="url(#a)">
    <path fill="#FF0B0B" d="M9.824 8.935c0 .916-.26 1.652-.78 2.208-.519.551-1.207.827-2.064.827-.957 0-1.693-.397-2.208-1.19C4.257 9.987 4 8.84 4 7.335c0-1.941.328-3.468.984-4.58.638-1.08 1.495-1.62 2.57-1.62.703 0 1.281.266 1.737.8.25.291.376.549.376.772 0 .178-.089.335-.267.472a.934.934 0 0 1-.58.198c-.146 0-.27-.075-.37-.226-.342-.524-.695-.786-1.06-.786-.533 0-.972.356-1.319 1.067-.369.747-.583 1.797-.642 3.151.41-.47.966-.704 1.668-.704.788 0 1.44.29 1.955.868.515.579.772 1.308.772 2.188Zm-1.401.294c0-.634-.162-1.147-.486-1.539-.319-.392-.722-.587-1.21-.587-.382 0-.688.14-.915.423-.228.278-.342.654-.342 1.128 0 .602.16 1.108.478 1.518.324.405.716.608 1.176.608.397 0 .711-.136.943-.41.237-.278.356-.658.356-1.141Zm4.71-8.306c0 .647-.317.97-.95.97a.884.884 0 0 1-.65-.266.887.887 0 0 1-.26-.643.95.95 0 0 1 .287-.697.958.958 0 0 1 .705-.287c.26 0 .469.084.629.253.16.169.239.392.239.67Zm-.294 2.604c0 2.748-.098 4.779-.294 6.091-.078.529-.164.884-.26 1.067a.622.622 0 0 1-.595.362.658.658 0 0 1-.464-.178.587.587 0 0 1-.192-.437c0 .022.037-.135.11-.472.086-.383.157-.818.211-1.306.073-.692.11-1.467.11-2.324 0-.374-.005-.768-.014-1.183l-.014-.676c0-.616.053-1.044.158-1.285.11-.265.314-.397.615-.397.42 0 .629.246.629.738Zm7.759 1.388a.6.6 0 0 1-.15.41.467.467 0 0 1-.356.164c-.069 0-.33-.089-.786-.266a3.603 3.603 0 0 0-1.326-.267c-.137 0-.28.01-.431.027a9.292 9.292 0 0 0-.253 2.044c0 .798.134 1.41.403 1.84.27.428.643.642 1.121.642.146 0 .338-.046.575-.137.241-.096.414-.143.52-.143.364 0 .546.214.546.642 0 .278-.15.504-.451.677-.301.173-.711.26-1.23.26-1.933 0-2.9-1.288-2.9-3.863 0-.542.067-1.139.2-1.79-.128.018-.404.07-.828.157a3.56 3.56 0 0 1-.615.082c-.488 0-.732-.187-.732-.561 0-.51.841-.843 2.523-.998.346-1.098.77-1.647 1.271-1.647a.53.53 0 0 1 .397.17c.11.11.164.244.164.404 0 .118-.034.269-.103.45l-.205.54c1.764.06 2.646.448 2.646 1.163Z"/>
  </g>
  <defs>
    <filter id="a" width="24.598" height="19.97" x="0" y="0" color-interpolation-filters="sRGB" filterUnits="userSpaceOnUse">
      <feFlood flood-opacity="0" result="BackgroundImageFix"/>
      <feColorMatrix in="SourceAlpha" result="hardAlpha" values="0 0 0 0 0 0 0 0 0 0 0 0 0 0 0 0 0 0 127 0"/>
      <feOffset dy="4"/>
      <feGaussianBlur stdDeviation="2"/>
      <feComposite in2="hardAlpha" operator="out"/>
      <feColorMatrix values="0 0 0 0 0 0 0 0 0 0 0 0 0 0 0 0 0 0 0.25 0"/>
      <feBlend in2="BackgroundImageFix" result="effect1_dropShadow_15_11"/>
      <feBlend in="SourceGraphic" in2="effect1_dropShadow_15_11" result="shape"/>
    </filter>
  </defs>
</svg>
